<svg width="220" height="64" viewBox="0 0 220 64" fill="none" xmlns="http://www.w3.org/2000/svg">
<g clip-path="url(#clip0_4_48)">
<path d="M132.056 22.1505C131.564 23.5041 130.213 24.3654 128.862 24.3654C127.634 24.3654 124.071 24.3654 124.071 24.3654L122.351 32.2412C122.351 32.2412 122.351 32.2412 128.862 32.2412C133.53 32.2412 137.707 29.2877 139.426 24.9808C140.532 21.9043 140.532 21.9043 140.532 21.9043L132.547 20.6737C132.547 20.6737 132.547 20.6737 132.056 22.1505Z" fill="#333333"/>
<path d="M73.5828 0V23.0118H82.0589V14.767H89.0609V23.0118H97.6598V0H89.0609V7.26042H82.0589V0H73.5828Z" fill="#333333"/>
<path d="M15.4782 40.8551H8.59899V33.5948H0V56.4834H8.59899V48.2387H15.4782V56.4834H24.0772V33.5948H15.4782V40.8551Z" fill="#333333"/>
<path d="M184.018 40.8551H177.016V33.5948H168.417V56.4834H177.016V48.2387H184.018V56.4834H192.494V33.5948H184.018V40.8551Z" fill="#333333"/>
<path d="M124.071 23.0118V0H108.347C102.819 0 99.5024 3.69173 99.5024 7.99876C99.5024 12.4288 102.205 14.5208 103.925 15.2592L99.5024 23.0118H108.961L112.155 15.7514H115.472V23.0118H124.071ZM110.19 9.84463C108.961 9.84463 108.347 9.10629 108.347 7.99876V7.75265C108.347 6.52208 109.084 5.90678 110.19 5.90678H115.595V9.84463H110.19Z" fill="#333333"/>
<path d="M72.477 23.0118L64.7381 11.4444L72.3543 0H62.8954L59.7014 5.29148L56.3847 0H40.0466L35.7471 13.6594L31.4477 0H14.7411L8.47614 7.99876V0H0V23.0118H8.47614V17.4742L10.0731 15.6283L14.2497 23.135H24.4457L15.8467 10.4599L23.34 1.4767L31.8162 22.7656C31.2019 23.7501 29.7279 24.3654 28.6222 24.3654H27.1482L25.4285 32.2412H28.6222C33.2904 32.2412 37.4669 29.4109 39.1868 24.9808C41.1523 19.6893 46.803 4.92232 48.0315 1.72281L54.4192 11.3213L46.6803 22.8888H56.1392L59.4559 17.4742L62.7726 22.8888H72.477V23.0118Z" fill="#333333"/>
<path d="M156.624 32.9796C149.499 32.9796 142.497 38.394 141.023 44.9161C139.549 51.5612 144.094 56.8526 151.219 56.8526C158.344 56.8526 165.346 51.4382 166.82 44.9161C168.417 38.394 163.749 32.9796 156.624 32.9796ZM157.73 44.9161C157.238 47.3772 155.027 49.3462 153.062 49.3462C150.973 49.3462 149.745 47.3772 150.359 44.9161C150.851 42.455 153.062 40.486 155.027 40.486C157.116 40.486 158.344 42.455 157.73 44.9161Z" fill="#333333"/>
<path d="M75.1798 32.9796C72.7228 32.9796 70.6346 33.9641 68.7918 35.6869V33.5949H60.3157V63.6209H68.7918V54.3915C70.5116 56.1143 72.7228 57.0988 75.1798 57.0988C80.7077 57.0988 85.2527 51.6844 85.2527 45.1623C85.2527 38.394 80.7077 32.9796 75.1798 32.9796ZM72.4771 49.3462C70.6346 49.3462 69.1603 47.8696 68.7918 45.9006C68.7918 45.5314 68.6691 45.2853 68.6691 44.9161C68.6691 44.5469 68.6691 44.3008 68.7918 43.9316C69.1603 41.9628 70.6346 40.486 72.4771 40.486C74.5655 40.486 76.1625 42.455 76.1625 44.9161C76.1625 47.3772 74.5655 49.3462 72.4771 49.3462Z" fill="#333333"/>
<path d="M209.569 32.9796C202.445 32.9796 195.442 38.394 193.968 44.9161C192.494 51.5612 197.039 56.8526 204.164 56.8526C207.481 56.8526 210.798 55.6222 213.623 53.6532L208.955 48.9771C207.972 49.8384 206.867 50.3307 205.638 50.3307C203.919 50.3307 202.69 49.2233 202.199 47.5004H218.782C219.151 46.6389 219.52 45.7776 219.642 44.9161C221.362 38.394 216.694 32.9796 209.569 32.9796ZM203.427 42.455C204.533 40.7321 206.375 39.5017 208.095 39.5017C209.815 39.5017 211.166 40.7321 211.535 42.455H203.427Z" fill="#333333"/>
<path d="M124.071 44.6699V33.5948H115.595V56.4834H123.702L130.95 44.6699V56.4834H139.426V33.5948H130.95L124.071 44.6699Z" fill="#333333"/>
<path d="M43.9775 35.4407C42.6262 33.9641 40.6607 32.9796 38.4495 32.9796C32.9218 32.9796 27.1481 38.394 25.6739 44.9161C24.1999 51.5612 27.5166 56.8526 33.0446 56.8526C35.3785 56.8526 37.5898 55.9913 39.678 54.3915L39.3095 56.4835H47.9084L52.8221 33.5949H44.2232L43.9775 35.4407ZM41.8892 44.9161C41.8892 45.1623 41.7665 45.4085 41.6435 45.6544C40.9065 47.7464 38.941 49.3462 37.0983 49.3462C35.01 49.3462 33.7816 47.3772 34.3958 44.9161C34.8873 42.455 37.0983 40.486 39.0638 40.486C40.9065 40.486 42.135 42.0858 41.8892 44.1778C42.012 44.424 41.8892 44.6699 41.8892 44.9161Z" fill="#333333"/>
<path d="M105.031 35.4407C103.679 33.9641 101.714 32.9796 99.5026 32.9796C93.9746 32.9796 88.201 38.394 86.727 44.9161C85.2527 51.5612 88.5697 56.8526 94.0974 56.8526C96.4316 56.8526 98.6426 55.9913 100.731 54.3915L100.24 56.3605H108.839L113.875 33.3487H105.276L105.031 35.4407ZM103.065 44.9161C103.065 45.1623 102.942 45.4085 102.819 45.6544C102.082 47.7464 100.117 49.3462 98.2741 49.3462C96.1859 49.3462 94.9574 47.3772 95.5716 44.9161C96.0631 42.455 98.2741 40.486 100.24 40.486C102.082 40.486 103.311 42.0858 103.065 44.1778C103.065 44.424 103.065 44.6699 103.065 44.9161Z" fill="#333333"/>
</g>
<defs>
<clipPath id="clip0_4_48">
<rect width="220" height="63.8" fill="white"/>
</clipPath>
</defs>
</svg>
